<svg xmlns="http://www.w3.org/2000/svg" viewBox="0 0 40 40" role="img" aria-label="Wealthy favicon">
  <rect width="40" height="40" rx="12" fill="#064e3b"/>
  <g transform="translate(8 8)">
    <path
      d="M24 24H20.1561C18.3299 23.5651 16.6308 22.8023 15.1241 21.777C14.7469 21.5213 14.382 21.2481 14.0305 20.9599C14.1139 20.7679 14.1939 20.5743 14.2695 20.3784C14.6534 19.3889 14.9372 18.3496 15.1079 17.2723C15.1135 17.2796 15.1185 17.2863 15.1241 17.293C16.3151 18.8371 18.0316 19.9548 20.0062 20.3784C20.1131 20.4019 20.2205 20.4226 20.3291 20.4411C20.3257 20.4204 20.3213 20.3991 20.3168 20.3784H20.3789V13.6462H15.1241V10.3342H24V24Z"
      fill="#F5F5F5"
    />
    <path
      d="M10.3182 3.62158C10.1094 3.42849 9.89506 3.24212 9.67455 3.06247C8.02407 1.71704 6.05345 0.750507 3.89422 0.294942C2.97971 0.101859 2.03162 0 1.06003 0H0V12.2924C0.00335805 12.2952 0.00615643 12.2975 0.00951448 12.2997V13.6462H10.3439V3.64508C10.3355 3.63669 10.3266 3.62885 10.3182 3.62158ZM3.6211 10.3342V3.62158H3.80915C3.84217 3.62885 3.87519 3.63669 3.90821 3.64452C5.81111 4.10009 7.46159 5.20318 8.61508 6.70755C9.25871 7.54705 9.74675 8.51135 10.0378 9.55791C10.0876 9.73757 10.1318 9.91946 10.1699 10.1036C10.1855 10.1803 10.2006 10.2569 10.2146 10.3342H3.6211Z"
      fill="#F5F5F5"
    />
    <path
      d="M10.3439 0V13.6462H3.85672C3.77725 13.7324 3.69889 13.8203 3.6211 13.9087C3.54051 14.0005 3.46103 14.0934 3.38324 14.1874C1.97398 15.8743 0.922345 17.87 0.343641 20.0577H0.343081C0.198685 20.604 0.0833916 21.1625 0 21.7311V24H12.2614C12.2664 23.9933 12.2714 23.9866 12.2765 23.9799H13.6561V3.62158H20.3616C20.3431 3.71504 20.3224 3.80738 20.3005 3.89917C19.8181 5.91283 18.6109 7.64387 16.9699 8.80181C16.4024 9.20253 15.7834 9.53441 15.1241 9.7857V10.3342H20.3593C20.366 10.3274 20.3727 10.3202 20.3789 10.3129C20.5345 10.1433 20.6856 9.97039 20.8334 9.79353C22.2197 8.13301 23.2607 6.17364 23.8455 4.02621C23.9009 3.82137 23.953 3.6143 24 3.40555V0H10.3439ZM10.3439 20.3784H3.85113C3.87855 20.2413 3.90933 20.1059 3.94347 19.9716C4.4427 18.0049 5.63537 16.3153 7.24668 15.1786C7.86232 14.7437 8.53953 14.39 9.26207 14.1326C9.53071 14.0363 9.80551 13.9541 10.0859 13.8852H10.0865C10.0954 13.883 10.1044 13.8807 10.1133 13.8785C10.1895 13.8606 10.2667 13.8432 10.3439 13.827V20.3784Z"
      fill="#F5F5F5"
    />
  </g>
</svg>
